PathFileType	4	(X/Y/Z)	/Users/itak/Documents/Research/Walk-IL/dataset/trc/00392_00012.trc
DataRate	CameraRate	NumFrames	NumMarkers	Units	OrigDataRate	OrigDataStartFrame	OrigNumFrames
100.000000	100.000000	4	54	mm	100.000000	67	537
Frame#	Time	RPSI			LPSI			L3			STRN			T10			C7			CLAV			RBAK			LBAK			LSHO			LUPA			LAEL			LAOL			LWTS			LWPS			LFRA			LIFD			LHPS			LHTS			RSHO			RUPA			RAEL			RAOL			RWTS			RWPS			RFRA			RIFD			RHTS			RHPS			RBHD			LFHD			RFHD			LBHD			LHIP			RHIP			RASI			LASI			LKNE			LTHI			LANK			LTIP			LTOE			LMT1			LMT5			LHEE			RKNE			RANK			RTIP			RTOE			RMT1			RMT5			RHEE			RTHI			*53			
		X1	Y1	Z1	X2	Y2	Z2	X3	Y3	Z3	X4	Y4	Z4	X5	Y5	Z5	X6	Y6	Z6	X7	Y7	Z7	X8	Y8	Z8	X9	Y9	Z9	X10	Y10	Z10	X11	Y11	Z11	X12	Y12	Z12	X13	Y13	Z13	X14	Y14	Z14	X15	Y15	Z15	X16	Y16	Z16	X17	Y17	Z17	X18	Y18	Z18	X19	Y19	Z19	X20	Y20	Z20	X21	Y21	Z21	X22	Y22	Z22	X23	Y23	Z23	X24	Y24	Z24	X25	Y25	Z25	X26	Y26	Z26	X27	Y27	Z27	X28	Y28	Z28	X29	Y29	Z29	X30	Y30	Z30	X31	Y31	Z31	X32	Y32	Z32	X33	Y33	Z33	X34	Y34	Z34	X35	Y35	Z35	X36	Y36	Z36	X37	Y37	Z37	X38	Y38	Z38	X39	Y39	Z39	X40	Y40	Z40	X41	Y41	Z41	X42	Y42	Z42	X43	Y43	Z43	X44	Y44	Z44	X45	Y45	Z45	X46	Y46	Z46	X47	Y47	Z47	X48	Y48	Z48	X49	Y49	Z49	X50	Y50	Z50	X51	Y51	Z51	X52	Y52	Z52	X53	Y53	Z53	X54	Y54	Z54	

68	0.67	964.6012573242188	976.055908203125	-19.09445953369141	956.265869140625	968.9640502929688	-149.6687164306641	963.386474609375	1044.182495117188	-83.34552764892578	1201.700073242188	1209.632446289062	-80.14386749267578	958.1990356445312	1146.975219726562	-88.61188507080078	984.1669921875	1397.877197265625	-100.9641799926758	1144.232788085938	1327.168334960938	-85.66014099121094	946.4658203125	1250.179321289062	-31.05427932739258	976.7963256835938	1357.584350585938	-204.0408782958984	1066.101684570312	1375.611083984375	-250.8634948730469	1051.673461914062	1255.674194335938	-318.5589904785156	1086.730590820312	1059.84228515625	-333.3720092773438	1026.462280273438	1036.198608398438	-275.9172973632812	1187.507934570312	853.4021606445312	-271.8169860839844	1146.025634765625	833.16845703125	-340.3464965820312	1112.274658203125	956.2742309570312	-337.60400390625	1200.064453125	676.0968017578125	-269.122802734375	1165.157592773438	749.93115234375	-327.9420471191406	1214.239013671875	758.3314208984375	-286.8821105957031	1037.4248046875	1382.160522460938	62.45856475830078	1025.37890625	1316.608276367188	122.0670471191406	1052.438232421875	1055.440063476562	160.968505859375	1027.9462890625	1042.920532226562	72.18952941894531	1186.222900390625	845.469970703125	117.719123840332	1152.754272460938	833.4153442382812	182.7553558349609	1084.308349609375	991.92431640625	174.3217620849609	1194.010620117188	673.1135864257812	120.0768051147461	1211.871337890625	742.54931640625	135.5211944580078	1160.416870117188	743.7710571289062	181.8423156738281	995.8395385742188	1586.57666015625	-35.343505859375	1180.38623046875	1600.8212890625	-105.5244750976562	1123.275024414062	1604.823120117188	4.882471561431885	1055.61328125	1579.822021484375	-183.7746124267578	1040.729858398438	957.3443603515625	-264.1200561523438	1060.025756835938	951.87451171875	96.44889831542969	1180.599609375	964.1819458007812	37.86832427978516	1160.274658203125	960.4153442382812	-226.0810394287109	1076.685180664062	464.2648620605469	-239.3762054443359	1075.244995117188	607.169189453125	-251.6151885986328	957.2120971679688	34.0804557800293	-198.5674285888672	1014.370483398438	236.3451080322266	-231.0827789306641	1171.724731445312	31.98575973510742	-134.5952606201172	1091.310424804688	34.17259979248047	-104.6731872558594	1084.84765625	30.48387718200684	-209.0675964355469	918.4909057617188	30.15528678894043	-142.6997985839844	1071.999267578125	465.2701416015625	66.0614013671875	1001.00048828125	48.15839385986328	26.21588516235352	1073.456176757812	338.8969116210938	49.0065803527832	1180.5751953125	28.97825813293457	-34.82733154296875	1104.340454101562	30.95936393737793	-64.23969268798828	1085.849365234375	37.15526962280273	33.48980331420898	924.7471923828125	33.04768371582031	-25.16816139221191	1113.677490234375	732.2166137695312	95.49701690673828	nan	nan	nan	
69	0.68	964.5382690429688	976.0665893554688	-18.97336196899414	956.1770629882812	968.9647216796875	-149.5554504394531	963.23291015625	1044.176391601562	-83.25211334228516	1201.620971679688	1209.684326171875	-80.09711456298828	958.1292114257812	1146.95263671875	-88.54579162597656	984.0379028320312	1397.840698242188	-100.8685607910156	1144.154296875	1327.199584960938	-85.61444854736328	946.571044921875	1250.126586914062	-30.9878044128418	976.6851806640625	1357.553344726562	-203.9525146484375	1065.981323242188	1375.611328125	-250.7860107421875	1051.55810546875	1255.662963867188	-318.4825744628906	1086.607055664062	1059.85546875	-333.2974853515625	1026.329833984375	1036.199462890625	-275.8392333984375	1187.320922851562	853.3721313476562	-271.8204650878906	1145.815185546875	833.1505126953125	-340.3196105957031	1112.063842773438	956.2384033203125	-337.5378112792969	1199.865844726562	676.2540893554688	-269.2221984863281	1164.939575195312	749.9194946289062	-327.8937072753906	1213.9169921875	758.0432739257812	-286.6665649414062	1037.337158203125	1382.1640625	62.54856491088867	1025.312133789062	1316.590698242188	122.1816253662109	1052.361694335938	1055.441040039062	161.0909118652344	1027.7890625	1042.933471679688	72.24935913085938	1186.161254882812	845.4849853515625	117.8925170898438	1152.60302734375	833.4409790039062	182.8836364746094	1084.166015625	991.9351806640625	174.4239349365234	1193.999145507812	673.206787109375	120.3022003173828	1211.804565429688	742.5581665039062	135.7299194335938	1160.34130859375	743.7630615234375	181.9998626708984	995.7357788085938	1586.565795898438	-35.29921340942383	1180.208984375	1600.8544921875	-105.4911880493164	1123.225830078125	1604.857788085938	4.904387474060059	1055.44873046875	1579.799682617188	-183.7029418945312	1040.573608398438	957.3861694335938	-264.0696716308594	1060.393432617188	951.8136596679688	96.63990020751953	1180.548828125	964.176513671875	37.96360015869141	1160.168823242188	960.392822265625	-226.0228729248047	1076.641479492188	464.2664489746094	-239.3158111572266	1075.186889648438	607.169677734375	-251.570068359375	957.2083740234375	34.07447052001953	-198.5645599365234	1014.339904785156	236.3603515625	-231.06298828125	1171.724731445312	31.98114204406738	-134.5926055908203	1091.2978515625	34.14060211181641	-104.6543960571289	1084.84912109375	30.49982452392578	-209.0585021972656	918.4865112304688	30.14217185974121	-142.6996002197266	1071.908569335938	465.2641296386719	66.14755249023438	1000.977966308594	48.13965606689453	26.22380828857422	1073.377319335938	338.8915100097656	49.0645637512207	1180.558959960938	28.97684288024902	-34.8192024230957	1104.33935546875	30.93678665161133	-64.22691345214844	1085.887084960938	37.08524703979492	33.4376106262207	924.7875366210938	33.0430908203125	-25.16333961486816	1114.128540039062	732.1275024414062	95.68491363525391	nan	nan	nan	
70	0.6900000000000001	964.4791259765625	976.0755615234375	-18.84499549865723	956.0948486328125	968.9649658203125	-149.4440002441406	963.0724487304688	1044.166381835938	-83.14699554443359	1201.546020507812	1209.74658203125	-80.05603790283203	958.0422973632812	1146.935913085938	-88.48836517333984	983.904541015625	1397.800048828125	-100.7634353637695	1144.082153320312	1327.230712890625	-85.56858062744141	946.62646484375	1250.085571289062	-30.92852210998535	976.56103515625	1357.52197265625	-203.8567657470703	1065.857055664062	1375.609497070312	-250.7040100097656	1051.441528320312	1255.649047851562	-318.4013671875	1086.488403320312	1059.871704101562	-333.2258911132812	1026.193969726562	1036.199462890625	-275.7660522460938	1187.15478515625	853.373291015625	-271.8397827148438	1145.607177734375	833.1432495117188	-340.291259765625	1111.864379882812	956.209716796875	-337.4747924804688	1199.727905273438	676.4584350585938	-269.3501892089844	1164.72607421875	749.9127807617188	-327.8443908691406	1213.631103515625	757.7974243164062	-286.4746398925781	1037.24560546875	1382.162719726562	62.62085342407227	1025.255493164062	1316.579467773438	122.3061752319336	1052.30810546875	1055.447387695312	161.2206726074219	1027.650268554688	1042.946899414062	72.31494903564453	1186.1005859375	845.49658203125	118.0727844238281	1152.451538085938	833.4671020507812	183.0236358642578	1084.040771484375	991.9508666992188	174.5432739257812	1194	673.3153076171875	120.5629653930664	1211.722778320312	742.5596923828125	135.9468078613281	1160.239868164062	743.7645874023438	182.167724609375	995.6106567382812	1586.543212890625	-35.24948883056641	1180.039306640625	1600.892944335938	-105.4493408203125	1123.187744140625	1604.889282226562	4.928868293762207	1055.278198242188	1579.777099609375	-183.6241912841797	1040.405639648438	957.4239501953125	-264.0193786621094	1060.49267578125	951.7655029296875	96.75870513916016	1180.500732421875	964.1714477539062	38.06011581420898	1160.056396484375	960.3567504882812	-225.9548645019531	1076.594360351562	464.2689208984375	-239.2505798339844	1075.125610351562	607.1694946289062	-251.5214691162109	957.2041015625	34.0673828125	-198.5632934570312	1014.305236816406	236.3745422363281	-231.0413665771484	1171.7255859375	31.97576522827148	-134.5889434814453	1091.280517578125	34.09909820556641	-104.6297378540039	1084.848754882812	30.51251029968262	-209.0504608154297	918.4822998046875	30.13126564025879	-142.6996459960938	1071.81103515625	465.2543029785156	66.23287200927734	1000.922729492188	48.13732147216797	26.21139526367188	1073.305297851562	338.8847961425781	49.11620330810547	1180.544189453125	28.98099517822266	-34.81430435180664	1104.33935546875	30.91322135925293	-64.21813201904297	1085.930053710938	37.02902603149414	33.38154220581055	924.824951171875	33.04025650024414	-25.1596851348877	1114.31103515625	732.0512084960938	95.80062103271484	nan	nan	nan	
71	0.7000000000000001	964.4252319335938	976.0808715820312	-18.70941352844238	956.0198364257812	968.966796875	-149.337158203125	962.9127197265625	1044.15380859375	-83.03056335449219	1201.473999023438	1209.816040039062	-80.01879119873047	957.890380859375	1146.925903320312	-88.44575500488281	983.7648315429688	1397.755493164062	-100.6491012573242	1144.015502929688	1327.260009765625	-85.52265167236328	946.64892578125	1250.057983398438	-30.87221527099609	976.4249267578125	1357.492919921875	-203.7558288574219	1065.73095703125	1375.606079101562	-250.6195831298828	1051.32666015625	1255.632446289062	-318.3177490234375	1086.370971679688	1059.886474609375	-333.1538391113281	1026.057495117188	1036.197265625	-275.6943359375	1187.006591796875	853.3936157226562	-271.8656921386719	1145.4052734375	833.1439819335938	-340.2599182128906	1111.679321289062	956.1888427734375	-337.4151611328125	1199.63330078125	676.6793823242188	-269.4815673828125	1164.519897460938	749.9097290039062	-327.7948303222656	1213.401489257812	757.6333618164062	-286.3363647460938	1037.143432617188	1382.156372070312	62.67498779296875	1025.20703125	1316.576782226562	122.4384613037109	1052.273681640625	1055.458374023438	161.3541412353516	1027.535400390625	1042.959106445312	72.38864898681641	1186.039794921875	845.5051879882812	118.2571258544922	1152.306274414062	833.4920654296875	183.1762542724609	1083.923217773438	991.96923828125	174.6725463867188	1194.007934570312	673.42138671875	120.8496170043945	1211.628662109375	742.5553588867188	136.1692657470703	1160.1162109375	743.7714233398438	182.3464965820312	995.4661254882812	1586.510009765625	-35.19215774536133	1179.875244140625	1600.933959960938	-105.3992538452148	1123.157104492188	1604.913330078125	4.954080581665039	1055.099365234375	1579.75048828125	-183.5376739501953	1040.231811523438	957.4547729492188	-263.9660339355469	1060.38671875	951.7244262695312	96.81704711914062	1180.4541015625	964.1671142578125	38.15832901000977	1159.937866210938	960.3074951171875	-225.8765563964844	1076.54345703125	464.2729187011719	-239.1805572509766	1075.060913085938	607.1705932617188	-251.4693603515625	957.2000122070312	34.06109619140625	-198.5629119873047	1014.267272949219	236.3876953125	-231.0175323486328	1171.728515625	31.97141456604004	-134.5845031738281	1091.258666992188	34.04896545410156	-104.5996780395508	1084.846557617188	30.52031326293945	-209.0435943603516	918.481689453125	30.1241569519043	-142.6984100341797	1071.706787109375	465.2395935058594	66.31324768066406	1000.832580566406	48.15380096435547	26.17801284790039	1073.244018554688	338.878173828125	49.16404342651367	1180.53271484375	28.99129676818848	-34.81398010253906	1104.339721679688	30.88929557800293	-64.21257781982422	1085.972534179688	36.98970794677734	33.32856750488281	924.856201171875	33.03877639770508	-25.15583801269531	1114.288452148438	731.9819946289062	95.85586547851562	nan	nan	nan	
